<svg width="20" height="20" viewBox="0 0 20 20" fill="none" xmlns="http://www.w3.org/2000/svg">
<path d="M5.82754 10.0001C5.82754 12.3009 7.69921 14.1726 10 14.1726C12.3009 14.1726 14.1725 12.3009 14.1725 10.0001C14.1725 7.69925 12.3009 5.82758 10 5.82758C7.69921 5.82758 5.82754 7.69925 5.82754 10.0001ZM10 7.49425C11.3817 7.49425 12.5059 8.61841 12.5059 10.0001C12.5059 11.3817 11.3817 12.5059 10 12.5059C8.61837 12.5059 7.49421 11.3817 7.49421 10.0001C7.49421 8.61841 8.61837 7.49425 10 7.49425ZM9.16504 15.8334H10.8317V18.3334H9.16504V15.8334ZM9.16504 1.66675H10.8317V4.16675H9.16504V1.66675ZM1.66504 9.16675H4.16504V10.8334H1.66504V9.16675ZM15.8317 9.16675H18.3317V10.8334H15.8317V9.16675ZM3.51587 15.3026L5.28254 13.5342L6.46171 14.7126L4.69504 16.4809L3.51587 15.3026ZM13.5334 5.28675L15.3017 3.51841L16.48 4.69675L14.7117 6.46508L13.5334 5.28675ZM5.28504 6.46591L3.51671 4.69758L4.69587 3.51925L6.46254 5.28758L5.28504 6.46591ZM16.48 15.3034L15.3017 16.4817L13.5334 14.7134L14.7117 13.5351L16.48 15.3034Z" fill="#2E2E2E"/>
</svg>
